<svg width="400" height="400" viewBox="0 0 400 400" fill="none" xmlns="http://www.w3.org/2000/svg">
  <defs>
    <linearGradient id="riceGradient" x1="0%" y1="0%" x2="100%" y2="100%">
      <stop offset="0%" style="stop-color:#f4f1eb;stop-opacity:1" />
      <stop offset="50%" style="stop-color:#e8dcc0;stop-opacity:1" />
      <stop offset="100%" style="stop-color:#d4c4a8;stop-opacity:1" />
    </linearGradient>
  </defs>
  
  <!-- Background circle -->
  <circle cx="200" cy="200" r="180" fill="url(#riceGradient)" stroke="#c4a484" stroke-width="2"/>
  
  <!-- Rice grains -->
  <ellipse cx="150" cy="120" rx="25" ry="8" fill="#f5f5dc" stroke="#d4c4a8" stroke-width="1" transform="rotate(15 150 120)"/>
  <ellipse cx="250" cy="140" rx="22" ry="7" fill="#f5f5dc" stroke="#d4c4a8" stroke-width="1" transform="rotate(-10 250 140)"/>
  <ellipse cx="180" cy="180" rx="28" ry="9" fill="#f5f5dc" stroke="#d4c4a8" stroke-width="1" transform="rotate(25 180 180)"/>
  <ellipse cx="220" cy="200" rx="24" ry="8" fill="#f5f5dc" stroke="#d4c4a8" stroke-width="1" transform="rotate(-5 220 200)"/>
  <ellipse cx="160" cy="240" rx="26" ry="8" fill="#f5f5dc" stroke="#d4c4a8" stroke-width="1" transform="rotate(20 160 240)"/>
  <ellipse cx="280" cy="220" rx="23" ry="7" fill="#f5f5dc" stroke="#d4c4a8" stroke-width="1" transform="rotate(-15 280 220)"/>
  <ellipse cx="200" cy="280" rx="27" ry="9" fill="#f5f5dc" stroke="#d4c4a8" stroke-width="1" transform="rotate(10 200 280)"/>
  <ellipse cx="120" cy="160" rx="21" ry="7" fill="#f5f5dc" stroke="#d4c4a8" stroke-width="1" transform="rotate(-20 120 160)"/>
  <ellipse cx="300" cy="180" rx="25" ry="8" fill="#f5f5dc" stroke="#d4c4a8" stroke-width="1" transform="rotate(30 300 180)"/>
  
  <!-- Additional smaller grains -->
  <ellipse cx="140" cy="90" rx="15" ry="5" fill="#f5f5dc" stroke="#d4c4a8" stroke-width="1" transform="rotate(45 140 90)"/>
  <ellipse cx="260" cy="100" rx="12" ry="4" fill="#f5f5dc" stroke="#d4c4a8" stroke-width="1" transform="rotate(-25 260 100)"/>
  <ellipse cx="320" cy="140" rx="18" ry="6" fill="#f5f5dc" stroke="#d4c4a8" stroke-width="1" transform="rotate(15 320 140)"/>
  <ellipse cx="100" cy="200" rx="14" ry="5" fill="#f5f5dc" stroke="#d4c4a8" stroke-width="1" transform="rotate(-35 100 200)"/>
  <ellipse cx="240" cy="260" rx="16" ry="5" fill="#f5f5dc" stroke="#d4c4a8" stroke-width="1" transform="rotate(40 240 260)"/>
  <ellipse cx="180" cy="320" rx="13" ry="4" fill="#f5f5dc" stroke="#d4c4a8" stroke-width="1" transform="rotate(-10 180 320)"/>
  
  <!-- Decorative elements -->
  <circle cx="200" cy="200" r="3" fill="#8b7355" opacity="0.6"/>
  <circle cx="160" cy="160" r="2" fill="#8b7355" opacity="0.4"/>
  <circle cx="240" cy="240" r="2" fill="#8b7355" opacity="0.4"/>
</svg>
